<svg width="10" height="18" viewBox="0 0 10 18" fill="none" xmlns="http://www.w3.org/2000/svg">
<path d="M2.44709 0.440774L9.57813 7.9346C9.7118 8.07393 9.81791 8.23969 9.89032 8.42233C9.96272 8.60497 10 8.80087 10 8.99872C10 9.19658 9.96272 9.39247 9.89032 9.57511C9.81791 9.75775 9.7118 9.92352 9.57813 10.0628L2.44709 17.5567C2.3145 17.6971 2.15676 17.8086 1.98296 17.8847C1.80917 17.9608 1.62275 18 1.43448 18C1.2462 18 1.05979 17.9608 0.885992 17.8847C0.712195 17.8086 0.554455 17.6971 0.42187 17.5567C0.288194 17.4173 0.182092 17.2516 0.109686 17.0689C0.0372789 16.8863 0 16.6904 0 16.4925C0 16.2947 0.0372789 16.0988 0.109686 15.9162C0.182092 15.7335 0.288194 15.5678 0.42187 15.4284L6.55457 8.99872L0.42187 2.56902C0.15331 2.2868 0.00243465 1.90402 0.00243465 1.5049C0.00243465 1.30727 0.0394746 1.11158 0.111442 0.928998C0.183409 0.746416 0.288893 0.580517 0.42187 0.440774C0.69043 0.158551 1.05468 0 1.43448 0C1.62254 0 1.80875 0.0389258 1.9825 0.114554C2.15624 0.190182 2.31411 0.301032 2.44709 0.440774Z" fill="#3F3932"/>
</svg>
