<svg width="19" height="13" viewBox="0 0 19 13" fill="none" xmlns="http://www.w3.org/2000/svg">
<path d="M6.7158 0.295798C6.62284 0.20207 6.51223 0.127676 6.39038 0.0769072C6.26852 0.0261385 6.13781 0 6.0058 0C5.87379 0 5.74308 0.0261385 5.62122 0.0769072C5.49936 0.127676 5.38876 0.20207 5.2958 0.295798L0.295798 5.2958C0.20207 5.38876 0.127676 5.49936 0.0769069 5.62122C0.0261382 5.74308 0 5.87379 0 6.0058C0 6.13781 0.0261382 6.26852 0.0769069 6.39038C0.127676 6.51223 0.20207 6.62284 0.295798 6.7158L5.2958 11.7158C5.38876 11.8095 5.49936 11.8839 5.62122 11.9347C5.74308 11.9855 5.87379 12.0116 6.0058 12.0116C6.13781 12.0116 6.26852 11.9855 6.39038 11.9347C6.51223 11.8839 6.62284 11.8095 6.7158 11.7158C6.80953 11.6228 6.88392 11.5122 6.93469 11.3904C6.98546 11.2685 7.0116 11.1378 7.0116 11.0058C7.0116 10.8738 6.98546 10.7431 6.93469 10.6212C6.88392 10.4994 6.80953 10.3888 6.7158 10.2958L2.4158 6.0058L6.7158 1.7158C6.80953 1.62284 6.88392 1.51223 6.93469 1.39038C6.98546 1.26852 7.0116 1.13781 7.0116 1.0058C7.0116 0.873786 6.98546 0.743081 6.93469 0.621222C6.88392 0.499362 6.80953 0.388761 6.7158 0.295798ZM17.7158 5.2958L12.7158 0.295798C12.6226 0.20256 12.5119 0.128599 12.39 0.0781388C12.2682 0.0276785 12.1377 0.0017066 12.0058 0.0017066C11.7395 0.0017066 11.4841 0.107495 11.2958 0.295798C11.2026 0.389037 11.1286 0.499727 11.0781 0.621549C11.0277 0.743371 11.0017 0.873939 11.0017 1.0058C11.0017 1.2721 11.1075 1.52749 11.2958 1.7158L15.5958 6.0058L11.2958 10.2958C11.2021 10.3888 11.1277 10.4994 11.0769 10.6212C11.0261 10.7431 11 10.8738 11 11.0058C11 11.1378 11.0261 11.2685 11.0769 11.3904C11.1277 11.5122 11.2021 11.6228 11.2958 11.7158C11.3888 11.8095 11.4994 11.8839 11.6212 11.9347C11.7431 11.9855 11.8738 12.0116 12.0058 12.0116C12.1378 12.0116 12.2685 11.9855 12.3904 11.9347C12.5122 11.8839 12.6228 11.8095 12.7158 11.7158L17.7158 6.7158C17.8095 6.62284 17.8839 6.51223 17.9347 6.39038C17.9855 6.26852 18.0116 6.13781 18.0116 6.0058C18.0116 5.87379 17.9855 5.74308 17.9347 5.62122C17.8839 5.49936 17.8095 5.38876 17.7158 5.2958Z" fill="#3F3932"/>
</svg>
