<svg width="30" height="30" viewBox="0 0 30 30" fill="none" xmlns="http://www.w3.org/2000/svg">
<path fill-rule="evenodd" clip-rule="evenodd" d="M10.7143 0C9.71972 0 8.7659 0.395088 8.06264 1.09835C7.35937 1.80161 6.96429 2.75544 6.96429 3.75V6.42857H4.28571C3.14907 6.42857 2.05898 6.8801 1.25526 7.68383C0.451529 8.48755 0 9.57764 0 10.7143V25.7143C0 26.8509 0.451529 27.941 1.25526 28.7447C2.05898 29.5485 3.14907 30 4.28571 30H25.7143C26.8509 30 27.941 29.5485 28.7447 28.7447C29.5485 27.941 30 26.8509 30 25.7143V10.7143C30 9.57764 29.5485 8.48755 28.7447 7.68383C27.941 6.8801 26.8509 6.42857 25.7143 6.42857H23.0357V3.75C23.0357 2.75544 22.6406 1.80161 21.9374 1.09835C21.2341 0.395088 20.2803 0 19.2857 0H10.7143ZM19.8214 6.42857V3.75C19.8214 3.60792 19.765 3.47166 19.6645 3.37119C19.5641 3.27073 19.4278 3.21429 19.2857 3.21429H10.7143C10.5722 3.21429 10.4359 3.27073 10.3355 3.37119C10.235 3.47166 10.1786 3.60792 10.1786 3.75V6.42857H19.8214ZM4.28571 9.64286H25.7143C25.9984 9.64286 26.271 9.75574 26.4719 9.95667C26.6728 10.1576 26.7857 10.4301 26.7857 10.7143V12.8571H3.21429V10.7143C3.21429 10.4301 3.32717 10.1576 3.5281 9.95667C3.72903 9.75574 4.00155 9.64286 4.28571 9.64286ZM3.21429 16.0714V25.7143C3.21429 25.9984 3.32717 26.271 3.5281 26.4719C3.72903 26.6728 4.00155 26.7857 4.28571 26.7857H25.7143C25.9984 26.7857 26.271 26.6728 26.4719 26.4719C26.6728 26.271 26.7857 25.9984 26.7857 25.7143V16.0714H17.1429V19.2857H12.8571V16.0714H3.21429Z" fill="#3F3932"/>
</svg>
