<svg width="22" height="20" viewBox="0 0 22 20" fill="none" xmlns="http://www.w3.org/2000/svg">
<path d="M1 9.76903C1 6.28804 1 4.54709 2.172 3.46614C3.344 2.3852 5.229 2.38428 9 2.38428H13C16.771 2.38428 18.657 2.38428 19.828 3.46614C20.999 4.54801 21 6.28804 21 9.76903V11.6152C21 15.0962 21 16.8372 19.828 17.9181C18.656 18.999 16.771 19 13 19H9C5.229 19 3.343 19 2.172 17.9181C1.001 16.8362 1 15.0962 1 11.6152V9.76903Z" stroke="white" stroke-width="2"/>
<path d="M6 2.38464V1M16 2.38464V1M1.5 7.00011H20.5" stroke="white" stroke-width="2" stroke-linecap="round"/>
<mask id="path-3-inside-1_203_1523" fill="white">
<path d="M17 14.3855C17 14.6303 16.8946 14.8651 16.7071 15.0382C16.5196 15.2113 16.2652 15.3086 16 15.3086C15.7348 15.3086 15.4804 15.2113 15.2929 15.0382C15.1054 14.8651 15 14.6303 15 14.3855C15 14.1407 15.1054 13.9059 15.2929 13.7328C15.4804 13.5596 15.7348 13.4624 16 13.4624C16.2652 13.4624 16.5196 13.5596 16.7071 13.7328C16.8946 13.9059 17 14.1407 17 14.3855ZM17 10.6931C17 10.9379 16.8946 11.1727 16.7071 11.3458C16.5196 11.519 16.2652 11.6162 16 11.6162C15.7348 11.6162 15.4804 11.519 15.2929 11.3458C15.1054 11.1727 15 10.9379 15 10.6931C15 10.4483 15.1054 10.2135 15.2929 10.0404C15.4804 9.86727 15.7348 9.77002 16 9.77002C16.2652 9.77002 16.5196 9.86727 16.7071 10.0404C16.8946 10.2135 17 10.4483 17 10.6931ZM12 14.3855C12 14.6303 11.8946 14.8651 11.7071 15.0382C11.5196 15.2113 11.2652 15.3086 11 15.3086C10.7348 15.3086 10.4804 15.2113 10.2929 15.0382C10.1054 14.8651 10 14.6303 10 14.3855C10 14.1407 10.1054 13.9059 10.2929 13.7328C10.4804 13.5596 10.7348 13.4624 11 13.4624C11.2652 13.4624 11.5196 13.5596 11.7071 13.7328C11.8946 13.9059 12 14.1407 12 14.3855ZM12 10.6931C12 10.9379 11.8946 11.1727 11.7071 11.3458C11.5196 11.519 11.2652 11.6162 11 11.6162C10.7348 11.6162 10.4804 11.519 10.2929 11.3458C10.1054 11.1727 10 10.9379 10 10.6931C10 10.4483 10.1054 10.2135 10.2929 10.0404C10.4804 9.86727 10.7348 9.77002 11 9.77002C11.2652 9.77002 11.5196 9.86727 11.7071 10.0404C11.8946 10.2135 12 10.4483 12 10.6931ZM7 14.3855C7 14.6303 6.89464 14.8651 6.70711 15.0382C6.51957 15.2113 6.26522 15.3086 6 15.3086C5.73478 15.3086 5.48043 15.2113 5.29289 15.0382C5.10536 14.8651 5 14.6303 5 14.3855C5 14.1407 5.10536 13.9059 5.29289 13.7328C5.48043 13.5596 5.73478 13.4624 6 13.4624C6.26522 13.4624 6.51957 13.5596 6.70711 13.7328C6.89464 13.9059 7 14.1407 7 14.3855ZM7 10.6931C7 10.9379 6.89464 11.1727 6.70711 11.3458C6.51957 11.519 6.26522 11.6162 6 11.6162C5.73478 11.6162 5.48043 11.519 5.29289 11.3458C5.10536 11.1727 5 10.9379 5 10.6931C5 10.4483 5.10536 10.2135 5.29289 10.0404C5.48043 9.86727 5.73478 9.77002 6 9.77002C6.26522 9.77002 6.51957 9.86727 6.70711 10.0404C6.89464 10.2135 7 10.4483 7 10.6931Z"/>
</mask>
<path d="M17 14.3855C17 14.6303 16.8946 14.8651 16.7071 15.0382C16.5196 15.2113 16.2652 15.3086 16 15.3086C15.7348 15.3086 15.4804 15.2113 15.2929 15.0382C15.1054 14.8651 15 14.6303 15 14.3855C15 14.1407 15.1054 13.9059 15.2929 13.7328C15.4804 13.5596 15.7348 13.4624 16 13.4624C16.2652 13.4624 16.5196 13.5596 16.7071 13.7328C16.8946 13.9059 17 14.1407 17 14.3855ZM17 10.6931C17 10.9379 16.8946 11.1727 16.7071 11.3458C16.5196 11.519 16.2652 11.6162 16 11.6162C15.7348 11.6162 15.4804 11.519 15.2929 11.3458C15.1054 11.1727 15 10.9379 15 10.6931C15 10.4483 15.1054 10.2135 15.2929 10.0404C15.4804 9.86727 15.7348 9.77002 16 9.77002C16.2652 9.77002 16.5196 9.86727 16.7071 10.0404C16.8946 10.2135 17 10.4483 17 10.6931ZM12 14.3855C12 14.6303 11.8946 14.8651 11.7071 15.0382C11.5196 15.2113 11.2652 15.3086 11 15.3086C10.7348 15.3086 10.4804 15.2113 10.2929 15.0382C10.1054 14.8651 10 14.6303 10 14.3855C10 14.1407 10.1054 13.9059 10.2929 13.7328C10.4804 13.5596 10.7348 13.4624 11 13.4624C11.2652 13.4624 11.5196 13.5596 11.7071 13.7328C11.8946 13.9059 12 14.1407 12 14.3855ZM12 10.6931C12 10.9379 11.8946 11.1727 11.7071 11.3458C11.5196 11.519 11.2652 11.6162 11 11.6162C10.7348 11.6162 10.4804 11.519 10.2929 11.3458C10.1054 11.1727 10 10.9379 10 10.6931C10 10.4483 10.1054 10.2135 10.2929 10.0404C10.4804 9.86727 10.7348 9.77002 11 9.77002C11.2652 9.77002 11.5196 9.86727 11.7071 10.0404C11.8946 10.2135 12 10.4483 12 10.6931ZM7 14.3855C7 14.6303 6.89464 14.8651 6.70711 15.0382C6.51957 15.2113 6.26522 15.3086 6 15.3086C5.73478 15.3086 5.48043 15.2113 5.29289 15.0382C5.10536 14.8651 5 14.6303 5 14.3855C5 14.1407 5.10536 13.9059 5.29289 13.7328C5.48043 13.5596 5.73478 13.4624 6 13.4624C6.26522 13.4624 6.51957 13.5596 6.70711 13.7328C6.89464 13.9059 7 14.1407 7 14.3855ZM7 10.6931C7 10.9379 6.89464 11.1727 6.70711 11.3458C6.51957 11.519 6.26522 11.6162 6 11.6162C5.73478 11.6162 5.48043 11.519 5.29289 11.3458C5.10536 11.1727 5 10.9379 5 10.6931C5 10.4483 5.10536 10.2135 5.29289 10.0404C5.48043 9.86727 5.73478 9.77002 6 9.77002C6.26522 9.77002 6.51957 9.86727 6.70711 10.0404C6.89464 10.2135 7 10.4483 7 10.6931Z" fill="white"/>
<path d="M7 14.3855H5H7ZM7 10.6931H5H7ZM17 14.3855H15C15 14.0459 15.1476 13.756 15.3505 13.5686L16.7071 15.0382L18.0637 16.5078C18.6417 15.9743 19 15.2147 19 14.3855H17ZM16.7071 15.0382L15.3505 13.5686C15.5481 13.3863 15.7841 13.3086 16 13.3086V15.3086V17.3086C16.7463 17.3086 17.4911 17.0364 18.0637 16.5078L16.7071 15.0382ZM16 15.3086V13.3086C16.2159 13.3086 16.4519 13.3863 16.6495 13.5686L15.2929 15.0382L13.9363 16.5078C14.5089 17.0364 15.2537 17.3086 16 17.3086V15.3086ZM15.2929 15.0382L16.6495 13.5686C16.8524 13.756 17 14.0459 17 14.3855H15H13C13 15.2147 13.3583 15.9742 13.9363 16.5078L15.2929 15.0382ZM15 14.3855H17C17 14.7251 16.8524 15.015 16.6495 15.2024L15.2929 13.7328L13.9363 12.2632C13.3583 12.7967 13 13.5563 13 14.3855H15ZM15.2929 13.7328L16.6495 15.2024C16.4519 15.3847 16.2159 15.4624 16 15.4624V13.4624V11.4624C15.2537 11.4624 14.509 11.7346 13.9363 12.2632L15.2929 13.7328ZM16 13.4624V15.4624C15.7841 15.4624 15.5481 15.3847 15.3505 15.2024L16.7071 13.7328L18.0637 12.2632C17.491 11.7346 16.7463 11.4624 16 11.4624V13.4624ZM16.7071 13.7328L15.3505 15.2024C15.1476 15.015 15 14.7251 15 14.3855H17H19C19 13.5562 18.6417 12.7967 18.0637 12.2632L16.7071 13.7328ZM17 10.6931H15C15 10.3535 15.1476 10.0636 15.3505 9.87625L16.7071 11.3458L18.0637 12.8154C18.6417 12.2819 19 11.5224 19 10.6931H17ZM16.7071 11.3458L15.3505 9.87625C15.5481 9.69388 15.7841 9.61621 16 9.61621V11.6162V13.6162C16.7463 13.6162 17.4911 13.344 18.0637 12.8154L16.7071 11.3458ZM16 11.6162V9.61621C16.2159 9.61621 16.4519 9.69388 16.6495 9.87625L15.2929 11.3458L13.9363 12.8154C14.5089 13.344 15.2537 13.6162 16 13.6162V11.6162ZM15.2929 11.3458L16.6495 9.87625C16.8524 10.0636 17 10.3535 17 10.6931H15H13C13 11.5224 13.3583 12.2819 13.9363 12.8154L15.2929 11.3458ZM15 10.6931H17C17 11.0327 16.8524 11.3226 16.6495 11.51L15.2929 10.0404L13.9363 8.57079C13.3583 9.10435 13 9.86387 13 10.6931H15ZM15.2929 10.0404L16.6495 11.51C16.4519 11.6923 16.2159 11.77 16 11.77V9.77002V7.77002C15.2537 7.77002 14.5089 8.0422 13.9363 8.57079L15.2929 10.0404ZM16 9.77002V11.77C15.7841 11.77 15.5481 11.6923 15.3505 11.51L16.7071 10.0404L18.0637 8.57079C17.4911 8.0422 16.7463 7.77002 16 7.77002V9.77002ZM16.7071 10.0404L15.3505 11.51C15.1476 11.3227 15 11.0327 15 10.6931H17H19C19 9.86387 18.6417 9.10435 18.0637 8.57079L16.7071 10.0404ZM12 14.3855H10C10 14.0459 10.1476 13.756 10.3505 13.5686L11.7071 15.0382L13.0637 16.5078C13.6417 15.9743 14 15.2147 14 14.3855H12ZM11.7071 15.0382L10.3505 13.5686C10.5481 13.3863 10.7841 13.3086 11 13.3086V15.3086V17.3086C11.7463 17.3086 12.4911 17.0364 13.0637 16.5078L11.7071 15.0382ZM11 15.3086V13.3086C11.2159 13.3086 11.4519 13.3863 11.6495 13.5686L10.2929 15.0382L8.93632 16.5078C9.50895 17.0364 10.2537 17.3086 11 17.3086V15.3086ZM10.2929 15.0382L11.6495 13.5686C11.8524 13.756 12 14.0459 12 14.3855H10H8C8 15.2147 8.35831 15.9743 8.93632 16.5078L10.2929 15.0382ZM10 14.3855H12C12 14.7251 11.8524 15.015 11.6495 15.2024L10.2929 13.7328L8.93632 12.2632C8.35831 12.7967 8 13.5562 8 14.3855H10ZM10.2929 13.7328L11.6495 15.2024C11.4519 15.3847 11.2159 15.4624 11 15.4624V13.4624V11.4624C10.2537 11.4624 9.50895 11.7346 8.93632 12.2632L10.2929 13.7328ZM11 13.4624V15.4624C10.7841 15.4624 10.5481 15.3847 10.3505 15.2024L11.7071 13.7328L13.0637 12.2632C12.4911 11.7346 11.7463 11.4624 11 11.4624V13.4624ZM11.7071 13.7328L10.3505 15.2024C10.1476 15.015 10 14.7251 10 14.3855H12H14C14 13.5562 13.6417 12.7967 13.0637 12.2632L11.7071 13.7328ZM12 10.6931H10C10 10.3535 10.1476 10.0636 10.3505 9.87625L11.7071 11.3458L13.0637 12.8154C13.6417 12.2819 14 11.5224 14 10.6931H12ZM11.7071 11.3458L10.3505 9.87625C10.5481 9.69388 10.7841 9.61621 11 9.61621V11.6162V13.6162C11.7463 13.6162 12.4911 13.344 13.0637 12.8154L11.7071 11.3458ZM11 11.6162V9.61621C11.2159 9.61621 11.4519 9.69388 11.6495 9.87625L10.2929 11.3458L8.93632 12.8154C9.50895 13.344 10.2537 13.6162 11 13.6162V11.6162ZM10.2929 11.3458L11.6495 9.87625C11.8524 10.0636 12 10.3535 12 10.6931H10H8C8 11.5224 8.35831 12.2819 8.93632 12.8154L10.2929 11.3458ZM10 10.6931H12C12 11.0327 11.8524 11.3227 11.6495 11.51L10.2929 10.0404L8.93632 8.57079C8.35831 9.10435 8 9.86387 8 10.6931H10ZM10.2929 10.0404L11.6495 11.51C11.4519 11.6923 11.2159 11.77 11 11.77V9.77002V7.77002C10.2537 7.77002 9.50895 8.0422 8.93632 8.57079L10.2929 10.0404ZM11 9.77002V11.77C10.7841 11.77 10.5481 11.6923 10.3505 11.51L11.7071 10.0404L13.0637 8.57079C12.4911 8.04221 11.7463 7.77002 11 7.77002V9.77002ZM11.7071 10.0404L10.3505 11.51C10.1476 11.3227 10 11.0327 10 10.6931H12H14C14 9.86387 13.6417 9.10435 13.0637 8.57079L11.7071 10.0404ZM7 14.3855H5C5 14.0459 5.1476 13.756 5.35053 13.5686L6.70711 15.0382L8.06368 16.5078C8.64169 15.9743 9 15.2147 9 14.3855H7ZM6.70711 15.0382L5.35053 13.5686C5.54809 13.3863 5.78414 13.3086 6 13.3086V15.3086V17.3086C6.7463 17.3086 7.49105 17.0364 8.06368 16.5078L6.70711 15.0382ZM6 15.3086V13.3086C6.21586 13.3086 6.45191 13.3863 6.64947 13.5686L5.29289 15.0382L3.93632 16.5078C4.50895 17.0364 5.2537 17.3086 6 17.3086V15.3086ZM5.29289 15.0382L6.64947 13.5686C6.8524 13.756 7 14.0459 7 14.3855H5H3C3 15.2147 3.35831 15.9743 3.93632 16.5078L5.29289 15.0382ZM5 14.3855H7C7 14.7251 6.8524 15.015 6.64947 15.2024L5.29289 13.7328L3.93632 12.2632C3.35831 12.7967 3 13.5562 3 14.3855H5ZM5.29289 13.7328L6.64947 15.2024C6.45191 15.3847 6.21586 15.4624 6 15.4624V13.4624V11.4624C5.25371 11.4624 4.50895 11.7346 3.93632 12.2632L5.29289 13.7328ZM6 13.4624V15.4624C5.78414 15.4624 5.54809 15.3847 5.35053 15.2024L6.70711 13.7328L8.06368 12.2632C7.49105 11.7346 6.74629 11.4624 6 11.4624V13.4624ZM6.70711 13.7328L5.35053 15.2024C5.1476 15.015 5 14.7251 5 14.3855H7H9C9 13.5562 8.64169 12.7967 8.06368 12.2632L6.70711 13.7328ZM7 10.6931H5C5 10.3535 5.1476 10.0636 5.35053 9.87625L6.70711 11.3458L8.06368 12.8154C8.64169 12.2819 9 11.5224 9 10.6931H7ZM6.70711 11.3458L5.35053 9.87625C5.54809 9.69388 5.78413 9.61621 6 9.61621V11.6162V13.6162C6.7463 13.6162 7.49105 13.344 8.06368 12.8154L6.70711 11.3458ZM6 11.6162V9.61621C6.21587 9.61621 6.45191 9.69388 6.64947 9.87625L5.29289 11.3458L3.93632 12.8154C4.50895 13.344 5.2537 13.6162 6 13.6162V11.6162ZM5.29289 11.3458L6.64947 9.87625C6.8524 10.0636 7 10.3535 7 10.6931H5H3C3 11.5224 3.35831 12.2819 3.93632 12.8154L5.29289 11.3458ZM5 10.6931H7C7 11.0327 6.8524 11.3227 6.64947 11.51L5.29289 10.0404L3.93632 8.57079C3.35831 9.10435 3 9.86387 3 10.6931H5ZM5.29289 10.0404L6.64947 11.51C6.45191 11.6923 6.21587 11.77 6 11.77V9.77002V7.77002C5.2537 7.77002 4.50895 8.04221 3.93632 8.57079L5.29289 10.0404ZM6 9.77002V11.77C5.78413 11.77 5.54809 11.6923 5.35053 11.51L6.70711 10.0404L8.06368 8.57079C7.49105 8.04221 6.7463 7.77002 6 7.77002V9.77002ZM6.70711 10.0404L5.35053 11.51C5.1476 11.3227 5 11.0327 5 10.6931H7H9C9 9.86387 8.64169 9.10435 8.06368 8.57079L6.70711 10.0404Z" fill="white" mask="url(#path-3-inside-1_203_1523)"/>
</svg>
