<svg width="30" height="23" viewBox="0 0 30 23" fill="none" xmlns="http://www.w3.org/2000/svg">
<path d="M14.8975 5.75439C14.1435 5.75536 13.3958 5.87715 12.6895 6.11403L20.8883 13.474C21.1554 12.8321 21.2912 12.1521 21.2889 11.4668C21.2815 9.94944 20.6049 8.49654 19.407 7.42598C18.2092 6.35541 16.5878 5.75438 14.8975 5.75439Z" fill="#B7B7B7"/>
<path d="M29.7296 11.0731C26.5899 5.86256 21.0836 2.70947 14.9904 2.70947C13.3314 2.71269 11.6835 2.95265 10.1084 3.42038L11.6084 4.77529C12.7133 4.51914 13.8493 4.3871 14.9904 4.3822C20.2358 4.3822 25.006 7.00838 27.8476 11.4327C26.8043 13.0736 25.4226 14.5212 23.7762 15.6982L25.0992 16.8858C27.006 15.5058 28.5893 13.8002 29.7576 11.8677L29.9998 11.4662L29.7296 11.0731Z" fill="#B7B7B7"/>
<path d="M2.31989 1.24618L6.47519 4.97636C3.84816 6.49388 1.7014 8.59384 0.242237 11.0735L0 11.4665L0.242237 11.868C3.38201 17.0785 8.88825 20.2316 14.9815 20.2316C17.3598 20.2321 19.7074 19.7488 21.848 18.8182L26.5064 23L28.1368 21.7455L3.91307 0L2.31989 1.24618ZM10.0529 8.188C9.18121 9.2915 8.77265 10.6363 8.89954 11.9842C9.02642 13.3322 9.68056 14.5964 10.7461 15.5529C11.8117 16.5095 13.2199 17.0967 14.7215 17.2106C16.2231 17.3245 17.7212 16.9577 18.9504 16.1753L20.4411 17.5135C18.7155 18.1759 16.8582 18.5173 14.9815 18.5171C9.73608 18.5171 4.96587 15.8909 2.12424 11.4665C3.48829 9.2991 5.45221 7.48425 7.82613 6.19745L10.0529 8.188Z" fill="#B7B7B7"/>
</svg>
