<svg width="30" height="18" viewBox="0 0 30 18" fill="none" xmlns="http://www.w3.org/2000/svg">
<path d="M29.7575 8.59189C26.6138 3.23914 21.1007 0 15 0C8.89925 0 3.37687 3.23914 0.261194 8.59189L0 8.9957L0.242537 9.40811C3.38619 14.7609 8.89925 18 15 18C21.1007 18 26.6231 14.8038 29.7575 9.40811L30 8.9957L29.7575 8.59189ZM15 16.2387C9.74813 16.2387 4.92537 13.5408 2.12687 8.9957C4.92537 4.4506 9.74813 1.75274 15 1.75274C20.2519 1.75274 25.0187 4.45919 27.8638 8.9957C25.0187 13.5408 20.2425 16.2387 15 16.2387Z" fill="#B7B7B7"/>
<path d="M15.2703 14.916C18.8046 14.916 21.6696 12.2771 21.6696 9.02196C21.6696 5.76678 18.8046 3.12793 15.2703 3.12793C11.7361 3.12793 8.87109 5.76678 8.87109 9.02196C8.87109 12.2771 11.7361 14.916 15.2703 14.916Z" fill="#B7B7B7"/>
</svg>
