<svg width="33" height="33" viewBox="0 0 33 33" fill="none" xmlns="http://www.w3.org/2000/svg">
<path d="M1.5 16.5L16.5 1.5L31.5 16.5M5.25 13.6875V29.625C5.25 30.1223 5.44754 30.5992 5.79918 30.9508C6.15081 31.3025 6.62772 31.5 7.125 31.5H12.75V25.875C12.75 25.3777 12.9475 24.9008 13.2992 24.5492C13.6508 24.1975 14.1277 24 14.625 24H18.375C18.8723 24 19.3492 24.1975 19.7008 24.5492C20.0525 24.9008 20.25 25.3777 20.25 25.875V31.5H25.875C26.3723 31.5 26.8492 31.3025 27.2008 30.9508C27.5525 30.5992 27.75 30.1223 27.75 29.625V13.6875" stroke="#3F3932" stroke-width="3" stroke-linecap="round" stroke-linejoin="round"/>
</svg>
