<svg width="500" height="73" viewBox="0 0 500 73" fill="none" xmlns="http://www.w3.org/2000/svg">
<path d="M0.25 42.5413H10C11 46.3172 15.25 47.3241 18.75 47.3241C22 47.3241 25.5 46.5689 25.5 43.5482C25.5 36.5 1.5 43.2965 1.5 27.9413C1.5 18.8793 10.5 16.8655 17.25 16.8655C25 16.8655 33.25 19.6344 34 28.6965H24.5C23.75 25.1724 20 24.6689 17 24.6689C14.75 24.6689 10.5 25.1724 10.5 28.1931C10.5 34.7379 34.5 27.9413 34.5 43.8C34.5 53.3655 25.75 55.1275 18.25 55.1275C9.5 55.1275 1.25 52.3586 0.25 42.5413Z" fill="#3F3932"/>
<path d="M48 17.8724H38.75V54.1207H48V17.8724Z" fill="#3F3932"/>
<path d="M48 4.78271H38.75V13.3413H48V4.78271Z" fill="#3F3932"/>
<path d="M55 17.8724H64.25V22.1517H64.5C66.75 19.3827 71 16.8655 76 16.8655C81 16.8655 85 19.131 87.25 23.4103H87.5C91.25 18.6275 96.5 16.8655 101 16.8655C108.5 16.8655 114.75 21.9 114.75 32.2207V54.1207H105.5V33.731C105.5 27.4379 101.5 25.4241 98 25.4241C93.75 25.4241 89.5 28.6965 89.5 35.7448V53.8689H80.25V33.4793C80.25 27.1862 76.25 25.1724 72.75 25.1724C68.5 25.1724 64.25 28.4448 64.25 35.4931V53.6172H55V17.8724Z" fill="#3F3932"/>
<path d="M148.5 35.9965C148.5 29.7034 144.5 25.4241 138.75 25.4241C133.25 25.4241 129 29.7034 129 35.9965C129 42.2896 133.25 46.5689 138.75 46.5689C144.5 46.5689 148.5 42.2896 148.5 35.9965ZM158 35.9965C158 47.5758 151.5 55.1275 141.75 55.1275C136.25 55.1275 132.5 52.862 130 49.8413H129.75V68.4689H120.5V17.8724H129.75V22.1517H130C132.5 19.131 136.25 16.8655 141.75 16.8655C151.5 16.8655 158 24.4172 158 35.9965Z" fill="#3F3932"/>
<path d="M162.25 43.0448V4.02759H171.5V42.5414C171.5 44.8069 172.25 45.5621 174.5 45.5621H178.5V54.3724H173.25C165.5 54.1207 162.25 50.8483 162.25 43.0448Z" fill="#3F3932"/>
<path d="M207 32.2207C206 27.9413 203.25 24.6689 198.25 24.6689C193.75 24.6689 190.25 27.4379 189.25 32.2207H207ZM179.5 35.9965C179.5 24.4172 187.75 16.8655 198.25 16.8655C208.75 16.8655 216.5 24.1655 216.5 35.4931C216.5 37.0034 216.25 39.0172 216.25 39.0172H188.75C189.5 44.0517 193.25 47.3241 198 47.3241C201.5 47.3241 204.25 45.8138 205.75 43.0448H215.5C213.25 49.5896 207 54.8758 198 54.8758C187.75 55.1275 179.5 47.5758 179.5 35.9965Z" fill="#3F3932"/>
<path d="M229.5 35.9965C229.5 24.4172 237.25 16.8655 248.25 16.8655C257 16.8655 264.5 21.3965 266.75 31.4655H257C255.25 27.1862 252.25 25.4241 248.25 25.4241C242.75 25.4241 239 29.4517 239 35.9965C239 42.5413 242.75 46.5689 248.25 46.5689C252.25 46.5689 255.25 44.5551 257 40.5275H266.75C264.75 50.5965 257 55.1275 248.25 55.1275C237.25 55.1275 229.5 47.5758 229.5 35.9965Z" fill="#3F3932"/>
<path d="M296 35.9965C296 29.4517 291.75 25.4241 286.25 25.4241C280.75 25.4241 276.5 29.4517 276.5 35.9965C276.5 42.5413 280.75 46.5689 286.25 46.5689C291.5 46.5689 296 42.5413 296 35.9965ZM267.25 35.9965C267.25 24.4172 275.25 16.8655 286.25 16.8655C297.25 16.8655 305.25 24.4172 305.25 35.9965C305.25 47.5758 297.25 55.1275 286.25 55.1275C275.25 55.1275 267.25 47.5758 267.25 35.9965Z" fill="#3F3932"/>
<path d="M393.5 32.2207C392.5 27.9413 389.75 24.6689 384.75 24.6689C380.25 24.6689 376.75 27.4379 375.75 32.2207H393.5ZM366 35.9965C366 24.4172 374.25 16.8655 384.75 16.8655C395.25 16.8655 403 24.1655 403 35.4931C403 37.0034 402.75 39.0172 402.75 39.0172H375.25C376 44.0517 379.75 47.3241 384.5 47.3241C388 47.3241 390.75 45.8138 392.25 43.0448H402C399.75 49.5896 393.5 54.8758 384.5 54.8758C374.25 55.1275 366 47.5758 366 35.9965Z" fill="#3F3932"/>
<path d="M431.5 32.2207C430.5 27.9413 427.75 24.6689 422.75 24.6689C418.25 24.6689 414.75 27.4379 413.75 32.2207H431.5ZM403.75 35.9965C403.75 24.4172 412 16.8655 422.5 16.8655C433 16.8655 440.75 24.1655 440.75 35.4931C440.75 37.0034 440.5 39.0172 440.5 39.0172H413C413.75 44.0517 417.5 47.3241 422.25 47.3241C425.75 47.3241 428.5 45.8138 430 43.0448H439.75C437.5 49.5896 431.25 54.8758 422.25 54.8758C412 55.1275 403.75 47.5758 403.75 35.9965Z" fill="#3F3932"/>
<path d="M338.5 17.8724H321.5V15.8586C321.5 13.0897 322.5 12.0828 325.25 12.0828H338.5V4.02759H323.75C316 4.02759 312.25 7.80345 312.25 15.8586V18.1241H304V26.6828H312.25V54.3724H321.5V26.6828H338.5V17.8724Z" fill="#3F3932"/>
<path d="M353.5 12.0828H367.25V4.02759H352C344.25 4.02759 340.5 7.80345 340.5 15.8586V54.3724H349.75V26.6828H367.25V17.8724H349.75V15.8586C349.75 13.0897 350.75 12.0828 353.5 12.0828Z" fill="#3F3932"/>
<path d="M489.5 13.3414H480.25V0L461.25 26.9345H480.25L461.25 53.869H499V0L489.5 13.3414Z" fill="#E67634"/>
</svg>
