<svg width="24" height="24" viewBox="0 0 24 24" fill="none" xmlns="http://www.w3.org/2000/svg">
<path d="M18.793 3.29169C18.973 3.11235 19.2144 3.00822 19.4684 3.00047C19.7223 2.99271 19.9697 3.08191 20.1603 3.24994C20.3508 3.41798 20.4703 3.65225 20.4944 3.90517C20.5185 4.15809 20.4454 4.4107 20.29 4.61169L20.207 4.70569L15.414 9.49869H18C18.2549 9.49898 18.5 9.59657 18.6854 9.77154C18.8707 9.94651 18.9822 10.1856 18.9972 10.4401C19.0121 10.6945 18.9293 10.9451 18.7657 11.1405C18.6021 11.336 18.3701 11.4616 18.117 11.4917L18 11.4987H13C12.7551 11.4987 12.5187 11.4087 12.3356 11.246C12.1526 11.0832 12.0357 10.8589 12.007 10.6157L12 10.4987V5.49869C12.0003 5.24381 12.0979 4.99866 12.2728 4.81333C12.4478 4.62799 12.687 4.51646 12.9414 4.50152C13.1958 4.48658 13.4464 4.56937 13.6418 4.73296C13.8373 4.89655 13.9629 5.1286 13.993 5.38169L14 5.49869V8.08469L18.793 3.29169Z" fill="#746D66"/>
<path d="M4.706 20.2073C4.52604 20.3867 4.28456 20.4908 4.03061 20.4986C3.77667 20.5063 3.52928 20.4171 3.33872 20.2491C3.14815 20.081 3.02868 19.8468 3.00459 19.5939C2.9805 19.3409 3.05358 19.0883 3.20899 18.8873L3.29199 18.7933L8.08502 14.0003H5.499C5.24412 14 4.99897 13.9024 4.81363 13.7275C4.62829 13.5525 4.51676 13.3134 4.50183 13.0589C4.48689 12.8045 4.56967 12.5539 4.73326 12.3585C4.89685 12.163 5.1289 12.0374 5.382 12.0073L5.499 12.0003H10.499C10.744 12.0004 10.9804 12.0903 11.1634 12.253C11.3464 12.4158 11.4634 12.6401 11.492 12.8833L11.499 13.0003V18.0003C11.4987 18.2552 11.4011 18.5004 11.2262 18.6857C11.0512 18.871 10.8121 18.9826 10.5576 18.9975C10.3032 19.0124 10.0526 18.9297 9.85719 18.7661C9.66174 18.6025 9.53613 18.3704 9.50602 18.1173L9.49902 18.0003V15.4143L4.706 20.2073Z" fill="#746D66"/>
</svg>
