<svg width="12" height="14" viewBox="0 0 12 14" fill="none" xmlns="http://www.w3.org/2000/svg">
<path d="M3 0C2.44688 0 2 0.446875 2 1V7.5H0.75C0.334375 7.5 0 7.83437 0 8.25C0 8.66562 0.334375 9 0.75 9H2V10.5H0.75C0.334375 10.5 0 10.8344 0 11.25C0 11.6656 0.334375 12 0.75 12H2V13C2 13.5531 2.44688 14 3 14C3.55312 14 4 13.5531 4 13V12H8.75C9.16562 12 9.5 11.6656 9.5 11.25C9.5 10.8344 9.16562 10.5 8.75 10.5H4V9H7.5C9.98438 9 12 6.98438 12 4.5C12 2.01562 9.98438 0 7.5 0H3ZM7.5 7H4V2H7.5C8.88125 2 10 3.11875 10 4.5C10 5.88125 8.88125 7 7.5 7Z" fill="#3F3932"/>
</svg>
