<svg width="27" height="27" viewBox="0 0 27 27" fill="none" xmlns="http://www.w3.org/2000/svg">
<path d="M23.6097 14.1797L25.3479 15.7277C25.6689 15.9955 25.8834 16.3695 25.9526 16.7818C26.0217 17.1941 25.9409 17.6176 25.7248 17.9755L23.6289 21.5559C23.4663 21.8299 23.2341 22.0562 22.9559 22.2116C22.6744 22.3673 22.3584 22.45 22.0368 22.4519C21.8372 22.4532 21.6387 22.4233 21.4484 22.3635L19.2236 21.6289C18.8339 21.8789 18.4288 22.1026 18.0084 22.3L17.5411 24.5556C17.4546 24.9705 17.2236 25.3412 16.8892 25.6016C16.5506 25.8667 16.1308 26.0066 15.7009 25.9977H11.361C10.9311 26.0066 10.5113 25.8667 10.1727 25.6016C9.839 25.3409 9.60869 24.9702 9.52273 24.5556L9.05355 22.3C8.63859 22.1 8.23599 21.8752 7.84791 21.627L5.61546 22.3635C5.4251 22.4233 5.22659 22.4532 5.02706 22.4519C4.70605 22.4496 4.39073 22.367 4.10985 22.2116C3.83188 22.0567 3.59972 21.8312 3.43685 21.5578L1.26593 17.9755C1.04024 17.6143 0.954001 17.1833 1.02338 16.7631C1.09276 16.3429 1.313 15.9625 1.64281 15.693L3.37916 13.4991V12.8184L1.64089 11.2704C1.31989 11.0026 1.10541 10.6286 1.03628 10.2163C0.967144 9.80398 1.04793 9.38053 1.264 9.02261L3.43492 5.44223C3.59753 5.16815 3.82971 4.94195 4.10793 4.78653C4.38881 4.6311 4.70413 4.54847 5.02514 4.54617C5.22287 4.5337 5.42135 4.55186 5.61354 4.60001L7.80176 5.36916C8.19275 5.11919 8.59783 4.89549 9.01701 4.69808L9.48619 2.44255C9.57216 2.02792 9.80247 1.65724 10.1361 1.39651C10.4747 1.13144 10.8945 0.991502 11.3245 1.0004H15.6278C16.0578 0.991502 16.4776 1.13144 16.8162 1.39651C17.1527 1.65994 17.3834 2.03106 17.4661 2.44255L17.9353 4.69808C18.3519 4.89677 18.7538 5.12111 19.1409 5.37108L21.3753 4.63655C21.6233 4.55588 21.8853 4.52755 22.1448 4.55337C22.4043 4.57919 22.6556 4.65858 22.8828 4.78653C23.1616 4.94421 23.3924 5.1711 23.5558 5.44031L25.7248 9.02261C25.9536 9.38069 26.0442 9.80977 25.9798 10.2298C25.9154 10.6497 25.7004 11.032 25.3749 11.3051L23.6097 12.8087V14.1797Z" stroke="#3F3932" stroke-width="2"/>
<path d="M18.3067 13.4991C18.3067 14.774 17.8003 15.9967 16.8987 16.8983C15.9972 17.7998 14.7745 18.3062 13.4996 18.3062C12.2246 18.3062 11.0019 17.7998 10.1004 16.8983C9.19885 15.9967 8.69238 14.774 8.69238 13.4991C8.69238 12.2241 9.19885 11.0014 10.1004 10.0999C11.0019 9.19836 12.2246 8.69189 13.4996 8.69189C14.7745 8.69189 15.9972 9.19836 16.8987 10.0999C17.8003 11.0014 18.3067 12.2241 18.3067 13.4991Z" stroke="#3F3932" stroke-width="2"/>
</svg>
