<svg width="33" height="33" viewBox="0 0 33 33" fill="none" xmlns="http://www.w3.org/2000/svg">
<path d="M24.827 3.27851C28.02 5.16404 30.2903 8.37622 31.1352 12.2103C31.6189 14.4304 31.6216 16.7318 31.1433 18.9531C30.5579 21.7225 27.3957 22.5715 24.9957 21.1553L9.60325 12.0677C7.20325 10.6498 6.34054 7.42434 8.39352 5.52058C10.0349 3.98565 11.9848 2.83663 14.1065 2.15416C17.7762 0.988357 21.6341 1.39133 24.827 3.27851ZM24.827 3.27851C22.6087 1.96843 17.4406 6.87709 13.2827 14.2401M24.827 3.27851C27.0438 4.58694 25.4692 11.6166 21.3114 18.9813M17.2978 16.6098L11.4438 26.981M22.8389 31.5C20.009 28.6067 16.1711 26.9813 12.1695 26.9813C8.1678 26.9813 4.32997 28.6067 1.5 31.5" stroke="#3F3932" stroke-width="3" stroke-linecap="round" stroke-linejoin="round"/>
</svg>
